<?xml version="1.0" standalone="no"?>
<!DOCTYPE svg PUBLIC "-//W3C//DTD SVG 20010904//EN"
 "http://www.w3.org/TR/2001/REC-SVG-20010904/DTD/svg10.dtd">
<svg version="1.0" xmlns="http://www.w3.org/2000/svg"
 width="2048.000000pt" height="2048.000000pt" viewBox="0 0 2048.000000 2048.000000"
 preserveAspectRatio="xMidYMid meet">
<metadata>
Created by potrace 1.14, written by Peter Selinger 2001-2017
</metadata>
<g transform="translate(0.000000,2048.000000) scale(0.100000,-0.100000)"
fill="#000000" stroke="none">
<path d="M15305 20469 c-84 -21 -307 -127 -405 -192 -92 -61 -178 -157 -193
-216 -3 -14 2 -37 13 -59 19 -36 19 -36 -1 -58 -24 -26 -80 -43 -157 -50 -184
-15 -182 -15 -182 -39 0 -23 42 -49 282 -169 252 -126 294 -149 438 -239 281
-176 439 -336 440 -446 0 -33 -14 -51 -99 -122 -55 -47 -36 -86 69 -139 141
-71 330 -115 401 -91 74 24 125 98 145 207 3 15 7 30 9 33 3 6 12 81 21 185 5
56 5 465 0 496 -2 14 -7 54 -10 90 -16 163 -65 326 -137 450 -63 111 -251 279
-377 338 -61 28 -188 38 -257 21z"/>
<path d="M5091 19719 c-97 -39 -139 -68 -250 -174 -145 -138 -249 -286 -279
-398 -26 -93 -11 -263 43 -480 167 -676 293 -983 482 -1172 117 -116 261 -129
365 -32 69 64 40 131 -108 253 -155 126 -183 193 -147 352 46 200 210 551 294
629 34 31 88 51 124 46 17 -2 62 -23 100 -46 183 -109 299 -141 373 -103 50
26 65 66 60 155 -10 168 -132 373 -353 596 -187 189 -363 321 -487 365 -62 21
-174 26 -217 9z"/>
<path d="M13498 18813 c-89 -60 -219 -179 -408 -375 -236 -244 -319 -309 -480
-376 -81 -33 -176 -60 -305 -87 -107 -22 -92 -20 -305 -50 -14 -2 -50 -6 -80
-10 -30 -4 -66 -8 -80 -10 -14 -2 -56 -7 -95 -11 -38 -3 -77 -8 -86 -9 -8 -2
-53 -6 -100 -10 -46 -4 -92 -9 -103 -11 -10 -2 -58 -6 -105 -9 -47 -4 -97 -8
-111 -10 -14 -2 -61 -6 -105 -10 -44 -3 -98 -8 -120 -10 -22 -2 -76 -7 -120
-10 -44 -3 -96 -8 -115 -10 -19 -3 -66 -7 -105 -10 -38 -3 -88 -8 -110 -10
-22 -2 -71 -7 -110 -10 -38 -3 -108 -10 -155 -15 -47 -5 -116 -12 -155 -15
-78 -7 -140 -13 -200 -20 -22 -2 -67 -7 -100 -10 -33 -3 -78 -8 -100 -10 -94
-11 -133 -15 -180 -20 -80 -9 -135 -15 -210 -25 -38 -6 -86 -12 -105 -14 -146
-18 -281 -46 -301 -63 -39 -33 -135 -3 -244 79 -65 49 -84 58 -132 65 -146 21
-432 -365 -442 -598 -6 -135 67 -203 233 -218 44 -4 95 -15 112 -24 72 -37
154 -159 194 -290 31 -101 33 -117 33 -237 0 -133 -12 -176 -74 -256 -49 -64
-99 -204 -114 -324 -27 -206 -27 -514 -1 -640 47 -227 144 -233 220 -13 30 85
53 170 71 268 3 17 7 39 10 51 3 12 7 39 10 60 4 21 8 49 10 60 2 12 6 48 10
80 4 33 8 69 10 82 25 159 24 623 0 737 -3 11 -7 31 -10 45 -3 14 -9 43 -14
65 -58 238 -61 282 -22 277 54 -6 291 -212 366 -317 74 -103 142 -260 161
-372 2 -13 6 -35 9 -50 6 -35 14 -162 19 -313 9 -241 60 -350 144 -306 65 34
97 113 117 291 6 56 7 370 1 425 -2 19 -7 73 -11 120 -6 87 -12 139 -20 175
-2 11 -7 58 -11 105 -3 47 -8 87 -9 90 -3 6 -18 192 -18 225 1 59 1 60 22 41
23 -21 138 -253 180 -363 78 -205 114 -422 114 -683 0 -141 -12 -303 -28 -388
-24 -122 -23 -356 1 -443 22 -79 84 -147 154 -169 25 -7 51 -18 58 -23 7 -6
46 -10 87 -11 106 -1 107 1 120 158 4 49 8 101 10 115 2 14 6 60 10 101 3 41
8 91 11 110 2 19 6 67 9 105 7 92 14 178 20 240 2 28 7 86 11 130 3 44 8 82 9
85 2 3 6 39 10 80 3 40 8 77 10 81 3 3 7 28 10 55 3 27 8 56 10 64 2 8 7 31
10 50 14 82 69 290 101 377 70 194 161 331 259 389 71 41 195 41 203 -1 4 -18
-15 -39 -83 -90 -114 -85 -211 -248 -240 -404 -3 -14 -7 -37 -10 -51 -21 -90
-27 -475 -12 -630 5 -41 10 -100 13 -130 2 -30 6 -68 9 -85 2 -16 7 -52 10
-80 3 -27 8 -63 10 -80 3 -16 7 -48 10 -70 4 -22 12 -80 20 -130 8 -49 16
-110 20 -135 3 -25 8 -56 10 -70 2 -14 7 -50 10 -80 7 -61 13 -117 20 -170 12
-91 19 -241 19 -410 1 -214 -7 -309 -36 -415 -6 -22 -11 -44 -13 -50 -12 -51
-70 -165 -102 -200 -75 -81 -147 -112 -293 -125 -224 -20 -400 -111 -599 -306
-132 -130 -201 -168 -306 -168 -208 0 -338 187 -344 494 -5 234 -101 384 -211
329 -49 -24 -86 -95 -110 -211 -32 -153 -77 -245 -159 -331 -56 -60 -194 -119
-238 -103 -20 8 3 47 71 124 59 66 82 104 116 193 24 65 57 181 65 229 3 19 9
60 14 90 13 81 14 307 1 386 -35 218 -129 339 -344 443 -92 44 -240 97 -301
107 -20 3 -47 8 -59 10 -48 10 -190 4 -247 -11 -220 -57 -435 -246 -684 -600
-22 -31 -46 -64 -53 -73 -100 -132 -182 -249 -182 -259 0 -6 24 -36 53 -66 28
-30 115 -122 192 -203 295 -313 407 -419 530 -501 123 -82 230 -126 387 -158
37 -8 150 -16 275 -20 208 -6 354 -40 413 -95 53 -50 32 -113 -52 -154 -65
-30 -105 -37 -228 -37 -115 0 -162 5 -306 37 -147 32 -388 116 -452 157 -39
26 -269 134 -327 154 -16 6 -39 14 -50 19 -35 13 -38 13 -135 39 -157 42 -279
32 -310 -26 -44 -81 69 -290 259 -479 165 -163 250 -221 471 -323 52 -24 100
-50 107 -58 15 -19 -3 -44 -37 -52 -14 -3 -55 -13 -91 -21 -172 -39 -289 -117
-289 -192 0 -85 109 -141 280 -146 53 -1 179 10 190 17 11 7 148 19 212 18
141 0 184 -47 173 -187 -8 -100 4 -152 45 -191 27 -26 39 -30 83 -29 53 0 182
11 227 18 14 3 68 7 120 11 91 5 148 11 217 20 40 6 99 38 140 77 53 51 73
113 78 240 8 162 21 227 57 274 12 16 23 30 24 32 1 2 16 6 33 8 77 12 211
-90 377 -287 79 -93 98 -117 193 -244 261 -348 292 -480 180 -764 -45 -112
-124 -265 -229 -441 -53 -90 -117 -187 -154 -236 -96 -123 -134 -180 -140
-210 -6 -28 -4 -32 24 -44 28 -11 156 -9 241 5 13 2 44 6 69 9 25 3 115 17
200 31 85 14 167 27 182 30 27 4 126 22 164 29 12 2 45 7 75 11 30 3 61 8 70
11 8 2 37 6 65 9 27 3 85 9 129 13 85 9 319 8 370 -2 28 -5 114 -22 162 -32
13 -2 76 -22 140 -43 177 -58 206 -64 282 -59 57 3 75 8 96 28 34 32 33 74 -4
131 -48 77 -126 137 -261 200 -177 84 -209 101 -256 136 -182 136 -322 316
-397 511 -39 100 -41 113 -42 212 0 96 2 110 28 161 34 66 92 145 168 228 208
227 459 295 543 147 23 -39 29 -59 41 -136 3 -19 8 -42 10 -50 2 -8 7 -31 10
-50 15 -93 63 -242 111 -345 96 -209 225 -321 383 -333 168 -12 261 -94 274
-243 6 -69 35 -135 75 -173 76 -71 204 -8 216 106 7 61 15 77 43 84 43 11 94
-4 222 -65 138 -66 199 -81 279 -69 146 22 192 160 110 328 -20 41 -48 89 -62
105 -14 17 -30 35 -35 41 -23 27 -41 77 -36 95 11 33 45 42 155 42 103 -1 241
-9 290 -18 14 -3 54 -7 90 -10 36 -3 76 -8 90 -10 14 -2 54 -6 90 -10 36 -3
72 -8 80 -10 8 -2 35 -7 60 -10 197 -28 330 -79 330 -128 -1 -53 -83 -105
-310 -197 -211 -85 -276 -117 -305 -152 -49 -59 -27 -106 121 -255 199 -199
273 -212 429 -75 123 108 265 168 417 178 69 4 180 36 208 59 8 6 22 14 30 17
9 3 53 33 97 67 211 159 468 497 691 911 35 64 182 359 182 364 0 3 15 37 34
78 244 529 518 1394 575 1818 13 94 6 313 -13 400 -27 125 -111 364 -183 520
-14 30 -34 75 -45 100 -29 66 -43 100 -66 151 -212 474 -374 946 -397 1155 -3
28 -8 61 -10 75 -8 34 -8 286 -2 334 4 22 9 58 12 80 5 42 11 71 20 115 3 14
7 34 9 45 2 11 12 49 21 85 9 36 18 72 20 80 2 8 29 98 60 200 49 160 129 453
140 512 2 11 7 28 10 38 3 10 7 32 10 49 2 17 6 38 9 48 3 10 8 42 11 72 4 30
9 63 11 75 7 30 5 179 -2 234 -6 46 -41 132 -66 163 -27 32 -103 80 -152 94
-102 31 -153 33 -601 21 -242 -6 -344 6 -420 47 -38 21 -47 36 -60 99 -8 39
-40 65 -99 79 -48 12 -195 15 -242 5 -12 -2 -45 -7 -75 -11 -137 -17 -397 -81
-784 -195 -306 -90 -312 -80 -97 166 204 233 294 374 238 374 -6 0 -37 -17
-68 -37z m182 -1028 c25 -23 24 -66 -3 -126 -28 -63 -28 -90 3 -121 16 -15 34
-28 42 -29 73 -5 83 -8 101 -30 15 -18 18 -34 14 -68 -11 -96 -104 -134 -196
-80 -63 37 -175 153 -205 212 -45 89 -32 183 29 223 65 43 178 53 215 19z
m877 -885 c26 -6 53 -12 58 -13 36 -9 131 -67 169 -102 60 -58 93 -118 105
-195 10 -60 8 -332 -3 -390 -2 -14 -7 -47 -11 -73 -7 -53 -10 -67 -25 -143 -6
-28 -13 -63 -16 -79 -3 -15 -9 -35 -13 -44 -7 -14 -36 -153 -56 -271 -4 -19
-8 -105 -11 -190 -4 -178 10 -268 57 -361 41 -83 46 -128 19 -183 -26 -56
-112 -115 -245 -171 -188 -78 -231 -99 -276 -128 -106 -69 -98 -116 50 -287
223 -258 298 -436 231 -545 -42 -68 -122 -96 -310 -109 -72 -5 -206 -34 -270
-59 -8 -3 -58 -19 -110 -37 -52 -17 -104 -35 -115 -40 -11 -5 -81 -34 -155
-65 -135 -57 -319 -146 -590 -286 -355 -183 -552 -246 -666 -209 -68 22 -166
112 -187 172 -16 46 42 66 213 73 123 5 241 14 251 20 3 2 19 7 36 9 84 15
242 81 342 144 34 21 148 109 184 141 51 46 163 179 210 249 106 158 251 486
294 662 2 8 4 44 5 80 2 98 -32 161 -152 280 -177 176 -338 301 -485 377 -162
84 -260 111 -440 120 -440 23 -823 -286 -1040 -837 -20 -52 -38 -102 -40 -110
-2 -8 -16 -53 -31 -100 -15 -47 -29 -89 -30 -95 -5 -25 -67 -172 -100 -237
-119 -236 -230 -326 -277 -226 -17 37 -28 133 -42 373 -3 44 -7 107 -9 140 -3
33 -7 107 -11 165 -3 58 -8 134 -10 170 -3 36 -7 121 -10 190 -3 69 -7 161 -9
205 -24 464 -24 1161 -1 1365 3 19 7 58 10 85 14 128 43 215 77 235 25 14 29
13 54 -10 33 -30 102 -137 134 -205 51 -110 130 -356 146 -455 2 -14 9 -45 14
-70 6 -25 13 -56 16 -70 10 -52 24 -116 28 -135 2 -11 12 -54 21 -95 9 -41 18
-79 19 -85 2 -5 6 -23 10 -40 44 -174 83 -264 120 -285 34 -18 67 3 121 75 65
87 82 137 102 300 14 114 7 518 -11 610 -2 11 -7 47 -10 80 -4 33 -9 80 -12
104 -7 48 -7 293 0 326 4 24 13 49 32 93 46 107 234 30 234 -96 0 -76 86 -139
209 -153 43 -5 94 -15 113 -23 47 -20 104 -78 136 -140 23 -44 26 -63 27 -146
0 -133 -22 -174 -168 -322 -129 -130 -162 -185 -154 -255 5 -48 23 -70 78 -98
84 -44 203 -60 439 -60 265 1 366 22 436 93 36 36 54 95 55 184 1 84 -14 146
-60 244 -53 111 -71 137 -199 269 -86 89 -119 131 -146 188 -52 106 -31 157
77 193 86 29 301 24 422 -10 204 -57 308 -112 418 -219 92 -89 218 -144 302
-132 65 10 106 41 138 106 38 75 37 155 -1 304 -15 61 -27 120 -26 133 1 12 2
31 3 41 5 74 171 121 318 91z m-1130 -2422 c104 -104 -114 -504 -257 -473 -61
13 -103 103 -104 220 0 125 47 201 159 260 42 21 61 25 113 22 52 -2 67 -7 89
-29z m-5762 -429 c54 -23 85 -76 85 -146 0 -49 -31 -133 -49 -133 -63 0 -177
131 -185 212 -7 73 61 104 149 67z m6162 -1201 c41 -19 74 -90 67 -142 -10
-70 -78 -136 -141 -136 -33 0 -98 40 -120 74 -30 46 -34 74 -18 120 32 92 121
128 212 84z m1036 -191 c88 -67 270 -560 270 -733 0 -87 -19 -124 -83 -163
-96 -58 -183 -78 -262 -62 -62 14 -106 44 -123 85 -32 75 -156 139 -315 162
-19 2 -44 7 -55 9 -38 8 -140 15 -275 19 -208 7 -332 32 -457 91 -73 36 -123
82 -123 115 0 42 71 74 190 85 36 3 88 8 115 11 141 13 428 121 600 224 33 20
67 39 75 43 8 4 31 17 50 28 58 36 172 92 215 106 61 20 137 11 178 -20z
m-1249 -1016 c87 -28 124 -56 132 -95 7 -40 -6 -74 -47 -121 -109 -124 -384
-148 -561 -48 -132 74 -147 165 -39 230 80 48 153 62 311 59 107 -3 149 -8
204 -25z"/>
<path d="M5245 17045 c-20 -8 -42 -18 -49 -25 -24 -24 -9 -94 44 -205 85 -179
108 -257 115 -384 2 -49 -2 -78 -21 -128 -39 -103 -29 -143 37 -143 28 0 102
-76 161 -167 151 -231 318 -662 318 -820 0 -86 52 -137 140 -136 153 2 246
142 255 385 7 195 -50 367 -158 470 -46 46 -60 66 -64 95 -6 46 24 95 77 130
125 82 200 162 200 211 0 6 -62 48 -137 93 -400 238 -483 318 -488 464 -1 33
-7 69 -15 81 -20 32 -76 66 -133 81 -64 17 -230 15 -282 -2z"/>
<path d="M7673 15543 c-46 -16 -120 -86 -140 -131 -36 -81 6 -171 103 -220
175 -88 343 -84 382 7 43 103 -88 318 -213 350 -56 14 -80 13 -132 -6z"/>
<path d="M5861 14498 c-65 -34 -227 -197 -323 -326 -98 -131 -267 -410 -321
-530 -101 -223 -107 -401 -25 -807 11 -55 22 -113 24 -130 2 -16 7 -37 10 -47
2 -9 7 -25 9 -35 40 -197 89 -376 158 -578 100 -291 195 -498 315 -681 171
-261 251 -430 259 -549 6 -89 110 -405 197 -600 8 -16 28 -65 46 -107 190
-461 578 -957 1005 -1285 250 -192 612 -368 800 -388 144 -16 211 49 155 153
-50 94 -161 173 -359 257 -193 81 -448 299 -643 550 -121 155 -218 350 -218
435 0 22 6 55 13 73 43 104 -13 292 -150 507 -151 239 -169 348 -64 397 22 10
43 24 46 31 9 24 -23 76 -70 112 -25 19 -51 40 -58 45 -28 23 -80 50 -227 121
-300 145 -374 189 -453 270 -104 107 -137 210 -131 414 2 74 5 146 8 160 3 14
7 45 10 71 3 25 7 52 10 60 3 7 7 30 10 49 7 44 38 151 61 210 49 123 121 189
176 160 37 -20 75 66 84 194 19 265 52 483 111 739 39 172 52 302 35 363 -21
79 -103 135 -231 160 -38 7 -124 51 -152 77 -57 53 -70 131 -39 225 41 121 53
190 39 220 -17 36 -59 39 -117 10z"/>
<path d="M7463 11669 c-59 -12 -146 -72 -241 -166 -129 -128 -175 -231 -118
-268 41 -27 108 -3 211 75 153 116 257 268 227 334 -12 27 -35 35 -79 25z"/>
<path d="M8628 11225 c-2 -2 -31 -5 -64 -9 -143 -15 -279 -84 -308 -157 -21
-51 -20 -72 2 -99 34 -42 208 -37 317 9 139 58 225 109 289 173 61 61 35 76
-141 82 -51 2 -94 2 -95 1z"/>
<path d="M13455 9992 c-162 -18 -566 -254 -925 -541 -30 -24 -73 -58 -94 -75
-281 -223 -430 -380 -430 -454 0 -44 21 -59 91 -68 68 -8 140 1 223 28 84 27
135 56 236 133 121 93 179 107 238 59 73 -62 128 -186 127 -292 0 -80 -22
-134 -91 -223 -91 -118 -102 -159 -42 -159 41 0 231 63 345 114 17 8 114 49
215 91 101 43 250 111 330 152 397 202 517 344 511 602 -3 133 -30 213 -97
291 -47 56 -101 81 -178 81 -97 1 -174 -62 -241 -200 -77 -158 -184 -245 -307
-250 -69 -3 -128 13 -163 43 -36 31 -34 82 9 164 30 58 56 93 217 291 78 96
98 137 92 188 -2 18 -32 29 -66 25z"/>
<path d="M13483 8387 c-4 -293 -15 -428 -49 -622 -9 -49 -18 -103 -20 -120 -3
-16 -14 -77 -25 -134 -12 -57 -23 -114 -25 -125 -2 -12 -6 -32 -9 -46 -3 -14
-8 -41 -11 -60 -3 -19 -9 -51 -14 -70 -5 -19 -11 -48 -14 -65 -3 -16 -10 -52
-16 -80 -5 -27 -15 -72 -20 -100 -12 -60 -14 -70 -34 -160 -8 -39 -17 -82 -20
-95 -8 -43 -44 -212 -66 -310 -12 -52 -24 -106 -26 -120 -3 -14 -23 -104 -44
-200 -21 -96 -41 -186 -44 -200 -2 -14 -10 -47 -16 -75 -6 -27 -13 -57 -15
-65 -2 -8 -12 -55 -24 -105 -11 -49 -22 -101 -24 -115 -3 -14 -10 -45 -17 -70
-7 -25 -14 -54 -16 -65 -2 -11 -6 -31 -9 -45 -3 -14 -7 -34 -9 -45 -2 -11 -16
-69 -30 -130 -36 -151 -216 -916 -221 -938 -2 -10 -6 -26 -9 -35 -3 -9 -7 -28
-10 -42 -2 -14 -13 -61 -24 -105 -12 -44 -23 -91 -26 -105 -7 -34 -6 -29 -81
-330 -37 -146 -68 -273 -71 -283 -5 -22 -13 -53 -19 -75 -2 -9 -16 -62 -30
-117 -41 -158 -140 -528 -212 -790 -36 -132 -67 -251 -70 -265 -7 -42 -20 -43
-26 -3 -3 21 -8 49 -11 63 -5 22 -19 90 -32 160 -3 14 -11 57 -19 95 -8 39
-16 81 -19 95 -2 14 -16 84 -31 155 -15 72 -29 141 -31 155 -2 14 -9 48 -14
75 -6 28 -12 61 -15 75 -58 310 -192 756 -293 981 -62 136 -77 166 -125 244
-54 88 -108 143 -139 141 -12 -1 -30 -14 -42 -29 -20 -27 -21 -40 -19 -215 6
-722 2 -912 -22 -1157 -12 -124 -42 -183 -84 -168 -30 12 -96 62 -186 143
-114 104 -191 156 -250 172 -44 12 -48 11 -65 -10 -16 -20 -17 -27 -6 -74 19
-80 41 -117 115 -188 82 -79 126 -165 183 -350 33 -110 83 -324 102 -440 3
-19 8 -46 11 -60 3 -13 7 -42 10 -65 4 -22 8 -51 10 -65 4 -27 12 -86 20 -147
2 -21 7 -65 10 -98 3 -33 8 -76 10 -95 11 -86 18 -274 19 -510 1 -281 -8 -349
-49 -376 -21 -14 -27 -13 -62 5 -21 12 -66 44 -101 71 -122 97 -115 56 67
-360 23 -52 46 -104 51 -115 5 -11 25 -56 43 -100 l34 -80 4661 -3 4662 -2 0
2478 0 2478 -182 84 c-101 46 -223 102 -273 125 -49 23 -146 68 -215 100 -69
32 -163 75 -210 97 -120 56 -401 176 -555 238 -71 28 -139 55 -150 61 -53 24
-545 211 -885 337 -322 119 -790 282 -1250 435 -842 281 -1216 415 -1645 587
-872 350 -1293 628 -1457 964 -20 39 -63 157 -98 261 -34 105 -65 193 -69 197
-4 4 -7 -20 -8 -55z"/>
<path d="M6903 8261 c-92 -100 -721 -729 -772 -771 -332 -274 -739 -494 -1479
-799 -95 -39 -175 -71 -177 -71 -3 0 -24 -9 -48 -19 -23 -11 -161 -65 -307
-121 -146 -56 -283 -109 -305 -118 -21 -9 -42 -17 -45 -17 -3 -1 -43 -16 -90
-34 -116 -45 -204 -79 -570 -221 -368 -143 -999 -392 -1320 -522 -124 -50
-297 -120 -385 -155 -88 -36 -173 -71 -190 -78 -16 -7 -53 -23 -81 -34 -28
-11 -71 -28 -95 -39 -24 -11 -84 -36 -134 -57 -49 -20 -112 -47 -140 -60 -27
-12 -144 -64 -260 -115 -116 -51 -241 -107 -280 -125 -38 -17 -105 -47 -147
-65 l-78 -34 0 -2403 0 -2403 4973 0 4973 0 1 213 c1 116 4 235 8 262 3 28 6
53 6 57 0 4 6 26 14 48 40 114 75 156 137 166 20 4 47 17 60 31 35 37 31 139
-10 263 -33 97 -40 150 -21 150 5 0 56 -44 112 -98 139 -134 144 -138 212
-183 176 -115 155 41 -40 299 -40 54 -94 120 -120 147 -26 28 -66 70 -89 95
-41 44 -152 173 -191 221 -74 92 -138 213 -171 324 -25 84 -27 103 -28 285 -1
107 3 242 7 300 5 58 10 125 12 150 2 25 7 90 10 145 4 55 9 116 10 135 2 19
4 61 6 93 1 31 6 57 10 57 4 0 20 -10 36 -23 15 -13 59 -48 97 -77 38 -29 76
-59 85 -66 9 -8 75 -59 146 -114 72 -56 139 -109 150 -118 11 -10 49 -39 85
-67 36 -27 67 -52 70 -55 3 -3 43 -35 90 -70 47 -36 88 -69 92 -75 4 -5 8 -6
8 -2 0 4 -103 124 -228 265 -328 370 -380 437 -438 569 -35 82 -35 120 2 129
41 11 106 -32 237 -156 127 -121 179 -149 207 -115 52 63 -60 262 -261 465
-184 187 -226 256 -253 420 -15 96 -11 280 9 401 6 37 13 86 25 179 6 47 15
108 20 135 5 28 12 66 15 85 3 19 13 64 21 100 9 36 17 73 19 82 31 144 115
364 156 406 69 71 90 25 84 -183 -2 -82 -6 -159 -8 -170 -3 -11 -8 -51 -12
-88 -3 -37 -8 -76 -10 -85 -2 -16 -13 -90 -21 -152 -23 -174 -26 -369 -6 -393
13 -15 16 -15 38 0 33 21 70 5 127 -56 85 -91 126 -169 227 -432 45 -118 85
-218 90 -222 4 -5 11 9 15 30 5 21 9 40 10 43 1 3 5 19 10 35 4 17 27 100 50
186 24 85 51 192 60 238 31 152 20 321 -32 481 -25 78 -108 256 -150 323 -76
120 -139 253 -147 310 -9 60 6 109 52 165 44 55 51 62 200 191 282 243 387
300 487 265 76 -26 135 -106 281 -384 168 -320 272 -475 305 -455 15 10 6 114
-15 174 -9 24 -18 54 -20 66 -7 40 -108 300 -198 510 -378 883 -659 1232
-1110 1379 -189 62 -286 81 -408 80 -133 -1 -196 -39 -298 -176 -100 -136
-202 -200 -260 -162 -34 22 -65 11 -124 -44 -135 -126 -366 -568 -452 -864
-59 -203 -67 -369 -23 -455 29 -55 90 -91 208 -124 249 -69 371 -235 370 -499
-1 -75 -3 -91 -21 -185 -6 -27 -12 -60 -15 -72 -8 -46 -79 -241 -122 -338 -57
-130 -148 -294 -293 -530 -64 -104 -132 -216 -149 -249 -34 -61 -181 -353
-181 -360 0 -2 -10 -25 -22 -52 -12 -27 -23 -51 -23 -54 0 -3 -15 -41 -32 -85
-31 -78 -77 -231 -88 -290 -7 -36 -13 -114 -19 -250 -6 -113 -11 -143 -31
-191 -63 -152 -244 229 -514 1086 -29 91 -56 176 -61 190 -11 31 -172 561
-199 655 -150 522 -188 682 -195 805 -7 116 19 138 108 94 65 -32 90 -27 80
13 -10 41 -60 143 -131 267 -73 127 -134 269 -196 456 -38 114 -120 385 -132
439 -2 9 -11 41 -19 71 -21 74 -104 426 -111 470 -3 19 -11 53 -16 75 -6 22
-12 51 -14 65 -2 14 -18 97 -35 185 -17 88 -33 169 -35 180 -1 11 -6 38 -10
60 -3 22 -8 47 -10 55 -4 12 -29 143 -51 260 -2 14 -7 36 -9 50 -9 44 -15 73
-26 135 -16 91 -70 359 -72 361 -1 1 -21 -19 -44 -45z m3880 -1391 c67 -33 42
-130 -118 -456 -96 -196 -137 -293 -193 -454 -51 -147 -79 -205 -109 -221 -20
-11 -26 -9 -48 11 -47 44 -194 368 -247 545 -58 190 -26 281 140 403 81 59
160 104 239 134 32 12 60 22 63 23 3 0 25 6 50 12 89 24 178 25 223 3z"/>
<path d="M7938 4934 c-22 -22 106 -268 205 -393 94 -120 203 -205 254 -199 85
10 -5 170 -225 399 -96 100 -207 199 -224 199 -2 0 -7 -3 -10 -6z"/>
</g>
</svg>
